<?xml version="1.0" encoding="UTF-8"?>
<svg width="337px" height="213px" viewBox="0 0 337 213" version="1.1" xmlns="http://www.w3.org/2000/svg" xmlns:xlink="http://www.w3.org/1999/xlink">
    <!-- Generator: Sketch 46.2 (44496) - http://www.bohemiancoding.com/sketch -->
    <title>Page 1</title>
    <desc>Created with Sketch.</desc>
    <defs>
        <polygon id="path-1" points="0 213 336.311 213 336.311 0.423 0 0.423"></polygon>
    </defs>
    <g id="Page-1" stroke="none" stroke-width="1" fill="none" fill-rule="evenodd">
        <g id="Manifesto" transform="translate(-552.000000, -1670.000000)">
            <g id="Page-1" transform="translate(552.000000, 1669.000000)">
                <polygon id="Fill-1" fill="#EE4749" points="39.054 30.884 102.371 30.884 102.371 0.999 39.054 0.999"></polygon>
                <polygon id="Fill-2" fill="#EE4749" points="47.267 171.847 102.371 171.847 102.371 148.569 47.267 148.569"></polygon>
                <polygon id="Fill-3" fill="#273A4F" points="102.37 213.577 203.433 213.577 203.433 171.873 102.37 171.873"></polygon>
                <polygon id="Fill-4" fill="#273A4F" points="102.371 64.695 187.37 64.695 187.37 30.884 102.371 30.884"></polygon>
                <polygon id="Fill-5" fill="#EE4749" points="0 87.778 102.296 87.778 102.296 64.663 0 64.663"></polygon>
                <polygon id="Fill-6" fill="#273A4F" points="102.296 148.395 336.31 148.395 336.31 87.802 102.296 87.802"></polygon>
                <g id="Group-20" transform="translate(0.000000, 0.577000)">
                    <path d="M137.0319,117.3918 C140.8409,117.3918 143.2639,115.4008 143.2639,112.3278 L143.2639,112.2418 C143.2639,108.9958 140.9279,107.2208 136.9889,107.2208 L129.2419,107.2208 L129.2419,117.3918 L137.0319,117.3918 Z M123.9179,102.3728 L137.4219,102.3728 C141.2299,102.3728 144.2169,103.4988 146.1639,105.4028 C147.7659,107.0478 148.6759,109.2978 148.6759,111.9388 L148.6759,112.0248 C148.6759,117.0028 145.6879,119.9888 141.4469,121.2008 L149.6279,132.6698 L143.3509,132.6698 L135.9069,122.1098 L129.2419,122.1098 L129.2419,132.6698 L123.9179,132.6698 L123.9179,102.3728 Z" id="Fill-7" fill="#FEFEFE"></path>
                    <polygon id="Fill-9" fill="#FEFEFE" points="158.4782 102.3732 180.9412 102.3732 180.9412 107.1342 163.8012 107.1342 163.8012 115.0112 178.9942 115.0112 178.9942 119.7722 163.8012 119.7722 163.8012 127.9092 181.1572 127.9092 181.1572 132.6702 158.4782 132.6702"></polygon>
                    <polygon id="Fill-11" fill="#FEFEFE" points="188.5729 102.3732 194.4589 102.3732 203.5919 125.6582 212.6799 102.3732 218.4359 102.3732 205.8419 132.8872 201.1679 132.8872"></polygon>
                    <polygon id="Fill-13" fill="#FEFEFE" points="226.4089 102.3732 248.8719 102.3732 248.8719 107.1342 231.7329 107.1342 231.7329 115.0112 246.9249 115.0112 246.9249 119.7722 231.7329 119.7722 231.7329 127.9092 249.0889 127.9092 249.0889 132.6702 226.4089 132.6702"></polygon>
                    <path d="M311.8991,117.6081 L311.8991,117.5221 C311.8991,111.6351 307.6141,106.7451 301.5981,106.7451 C295.5821,106.7451 291.3831,111.5491 291.3831,117.4351 L291.3831,117.5221 C291.3831,123.4071 295.6691,128.2991 301.6841,128.2991 C307.7011,128.2991 311.8991,123.4941 311.8991,117.6081 M285.8001,117.6081 L285.8001,117.5221 C285.8001,108.9951 292.3791,101.8541 301.6841,101.8541 C310.9901,101.8541 317.4831,108.9081 317.4831,117.4351 L317.4831,117.5221 C317.4831,126.0481 310.9031,133.1901 301.5981,133.1901 C292.2931,133.1901 285.8001,126.1351 285.8001,117.6081" id="Fill-15" fill="#FEFEFE"></path>
                    <mask id="mask-2" fill="white">
                        <use xlink:href="#path-1"></use>
                    </mask>
                    <g id="Clip-18"></g>
                    <polygon id="Fill-17" fill="#FEFEFE" mask="url(#mask-2)" points="258.855 127.822 264.178 127.822 264.178 102.373 258.855 102.373"></polygon>
                    <polygon id="Fill-19" fill="#FEFEFE" mask="url(#mask-2)" points="264.178 132.67 280.106 132.67 280.106 127.822 264.178 127.822"></polygon>
                </g>
            </g>
        </g>
    </g>
</svg>