<?xml version="1.0" encoding="UTF-8"?>
<svg width="15px" height="9px" viewBox="0 0 15 9" version="1.1" xmlns="http://www.w3.org/2000/svg" xmlns:xlink="http://www.w3.org/1999/xlink">
    <!-- Generator: Sketch 46.2 (44496) - http://www.bohemiancoding.com/sketch -->
    <title>noun_1049903_cc</title>
    <desc>Created with Sketch.</desc>
    <defs></defs>
    <g id="Page-1" stroke="none" stroke-width="1" fill="none" fill-rule="evenodd">
        <g id="Manifesto" transform="translate(-1391.000000, -30.000000)" fill-rule="nonzero" fill="#FFFFFF">
            <g id="Group-3" transform="translate(1262.000000, 27.000000)">
                <g id="noun_1049903_cc" transform="translate(136.500000, 7.000000) rotate(-90.000000) translate(-136.500000, -7.000000) translate(132.000000, 0.000000)">
                    <g id="Group">
                        <path d="M4.03924347,13.7704941 C4.12599912,13.7590187 4.26860433,13.7238351 4.33618917,13.6700843 L7.89954709,10.9159859 C8.11155206,10.75214 8.12926428,10.4582548 7.97378351,10.2704941 C7.81830274,10.0827334 7.50000546,10.0485597 7.30565568,10.1987728 L4.51435659,12.3575957 L4.51435659,0.459016393 C4.51435659,0.205501639 4.30164845,0 4.03924347,0 C3.77683849,0 3.56413035,0.205501639 3.56413035,0.459016393 L3.56413035,12.3575957 L0.772840753,10.1987728 C0.57849573,10.0485597 0.270218581,10.0909039 0.104712925,10.2704941 C-0.0682995188,10.4582548 -0.0153956726,10.7657728 0.17894935,10.9159859 L3.74229777,13.6700843 C3.84074121,13.7477957 3.91395614,13.7642744 4.03924347,13.7704941 Z" id="Shape"></path>
                    </g>
                </g>
            </g>
        </g>
    </g>
</svg>