<?xml version="1.0" encoding="UTF-8"?>
<svg width="54px" height="57px" viewBox="0 0 54 57" version="1.1" xmlns="http://www.w3.org/2000/svg" xmlns:xlink="http://www.w3.org/1999/xlink">
    <!-- Generator: Sketch 47 (45396) - http://www.bohemiancoding.com/sketch -->
    <title>candidatos excepcionais</title>
    <desc>Created with Sketch.</desc>
    <defs>
        <polygon id="path-1" points="0.506468182 51 51.9155 51 51.9155 0.000234482759 0.506468182 0.000234482759"></polygon>
    </defs>
    <g id="Page-1" stroke="none" stroke-width="1" fill="none" fill-rule="evenodd">
        <g id="icons" transform="translate(-134.000000, -64.000000)">
            <g id="candidatos-excepcionais" transform="translate(134.000000, 64.000000)">
                <g id="Page-1">
                    <path d="M11.1802191,38.2031587 C11.1755496,36.6924913 11.9839588,35.300992 13.2855851,34.5781587 L17.9294144,31.9979869 C18.581395,31.6368712 18.9864751,30.9417234 18.9853078,30.1857878 L18.9853078,28.4217375 C18.9853078,28.2881247 18.9415311,28.1587249 18.860982,28.0527976 C18.0607445,26.9694504 17.4747207,25.7386477 17.1350138,24.4277976 C17.1029109,24.2983978 17.0299498,24.1840445 16.9278042,24.1015897 C16.5822603,23.8271418 16.3808876,23.4058401 16.3814713,22.9598622 L16.3814713,20.8328906 C16.3826387,20.475386 16.5139687,20.1311224 16.7497791,19.8663042 C16.8484225,19.755562 16.9032893,19.6111157 16.903873,19.4612527 L16.903873,17.8723435 C16.905624,17.8482691 16.905624,17.8241948 16.903873,17.8001204 C16.8221565,16.7330234 17.1566103,15.6755562 17.8348568,14.8576291 C18.7722613,13.7640503 20.3377151,13.208534 22.4967805,13.208534 C24.655846,13.208534 26.2218834,13.7640503 27.1645411,14.8516105 C27.8474572,15.6743525 28.1819109,16.7384401 28.095525,17.8121576 C28.0949413,17.8344264 28.0949413,17.8560933 28.095525,17.8783621 L28.095525,19.455836 C28.0961087,19.6050971 28.1509754,19.7495434 28.2502025,19.8602856 C28.4854292,20.1251038 28.6167592,20.4693674 28.6179266,20.826872 L28.6179266,22.947825 C28.6214287,23.521999 28.2875586,24.0432094 27.7698265,24.2707123 C27.6186511,24.3387224 27.5030807,24.4681222 27.4493813,24.6270131 C27.1032537,25.6700357 26.6117876,26.6570853 25.9901589,27.5574672 C25.8658332,27.7326083 25.7473443,27.8957123 25.6282718,28.0407604 C25.5413021,28.1478914 25.4928559,28.282708 25.4922722,28.4217375 L25.4922722,30.2339366 C25.4893538,31.0175577 25.9242021,31.7343724 26.612955,32.0828491 L31.5830665,34.6142703 C32.9582376,35.3076125 33.8250157,36.7370289 33.8191788,38.2994563 L33.813342,39.7920679 L11.1802191,39.7920679 L11.1802191,38.2031587 Z M10.593028,41 L34.4063699,41 C34.7344031,41 34.9999816,40.7297651 34.9999816,40.3963349 L34.9999816,38.3054748 C35.0052348,36.2880417 33.8851357,34.4421385 32.1107213,33.5447659 L27.1411935,31.0133447 C26.8440958,30.8767226 26.6520622,30.5775984 26.64856,30.2459738 L26.64856,28.6450274 L26.9275634,28.2640503 C27.5707886,27.3323717 28.087937,26.3164328 28.463249,25.2433173 C29.2734093,24.7702557 29.773047,23.8927445 29.7742144,22.9418064 L29.7742144,20.8328906 C29.7794676,20.2647352 29.6043609,19.7092188 29.2763277,19.25 L29.2763277,17.9150755 C29.3802244,16.516354 28.9418739,15.132077 28.054083,14.0601652 C26.8797009,12.6945459 25.0113125,12 22.4967805,12 C19.9822485,12 18.1138602,12.6945459 16.939478,14.0601652 C16.0476013,15.1248547 15.6080835,16.5073261 15.7172333,17.9030384 L15.7172333,19.25 C15.3804448,19.7068114 15.1971664,20.2617259 15.1954154,20.8328906 L15.1954154,22.9538436 C15.1936643,23.6947327 15.4971826,24.4025195 16.0324253,24.9050722 C16.4019005,26.2418023 17.0048511,27.5002906 17.8109256,28.620953 L17.8109256,30.1918064 C17.8109256,30.5041715 17.6422395,30.7924622 17.3719915,30.9411215 L12.7281622,33.5206915 C11.0465543,34.4529719 10,36.2471152 10,38.1971401 L10,40.3963349 C10,40.7297651 10.2655785,41 10.593028,41 L10.593028,41 Z" id="Fill-1" fill="#4A6174"></path>
                    <g id="Group-5" transform="translate(2.000000, 6.000000)">
                        <mask id="mask-2" fill="white">
                            <use xlink:href="#path-1"></use>
                        </mask>
                        <g id="Clip-4"></g>
                        <path d="M50.7414227,49.817269 L13.6199227,49.817269 L13.6199227,45.1580966 C13.6216955,45.1340621 13.6216955,45.1106138 13.6199227,45.0871655 L45.37715,45.0871655 C45.7062864,45.0871655 45.9733773,44.8222 45.9733773,44.4956828 L45.9733773,13.0087517 L50.7414227,13.0087517 L50.7414227,49.817269 Z M7.65942273,43.9042 L7.65942273,39.2450276 C7.65469545,39.2209931 7.64878636,39.1969586 7.64169545,39.1740966 L7.65942273,39.1740966 L39.3989227,39.1740966 C39.7280591,39.1740966 39.9945591,38.909131 39.9945591,38.5826138 L39.9945591,7.09568276 L44.7631955,7.09568276 L44.7631955,43.9042 L7.65942273,43.9042 Z M51.3199227,11.8257862 L45.9550591,11.8257862 L45.9550591,6.5042 C45.9550591,6.17768276 45.6879682,5.91271724 45.3594227,5.91271724 L39.9945591,5.91271724 L39.9945591,0.591131034 C39.9945591,0.264613793 39.7280591,0.000234482759 39.3989227,0.000234482759 L6.66019545,0.000234482759 L5.46833182,1.18261379 L38.8026955,1.18261379 L38.8026955,37.991131 L1.69892273,37.991131 L1.69892273,4.92261379 L0.506468182,6.1049931 L0.506468182,38.5826138 C0.506468182,38.909131 0.772968182,39.1740966 1.10269545,39.1740966 L6.46696818,39.1740966 C6.46519545,39.1975448 6.46519545,39.2209931 6.46696818,39.2450276 L6.46696818,44.4956828 C6.46696818,44.8222 6.73405909,45.0871655 7.06319545,45.0871655 L12.4274682,45.0871655 C12.4256955,45.1106138 12.4256955,45.1340621 12.4274682,45.1580966 L12.4274682,50.4087517 C12.4274682,50.735269 12.6939682,51.0002345 13.0236955,51.0002345 L50.7337409,51.0002345 L50.7337409,49.8278207 L51.9155591,49.8278207 L51.9155591,12.417269 C51.9155591,12.0907517 51.6490591,11.8257862 51.3199227,11.8257862 L51.3199227,11.8257862 Z" id="Fill-3" fill="#4A6174" mask="url(#mask-2)"></path>
                    </g>
                    <polygon id="Fill-6" fill="#4A6174" points="10.1621418 0 7.96557854 2.27144608 6.76982331 3.50796569 4.66628959 5.68321078 3.47053437 6.91911765 2.4027688 8.02328431 1.01562163 5.63235294 0 6.26348039 2.16812109 10 3.47053437 8.65318627 4.66628959 7.41666667 8.4461323 3.50796569 9.64129498 2.27144608 11 0.866421569"></polygon>
                </g>
            </g>
        </g>
    </g>
</svg>