<?xml version="1.0" encoding="UTF-8"?>
<svg width="72px" height="58px" viewBox="0 0 72 58" version="1.1" xmlns="http://www.w3.org/2000/svg" xmlns:xlink="http://www.w3.org/1999/xlink">
    <!-- Generator: Sketch 47 (45396) - http://www.bohemiancoding.com/sketch -->
    <title>Page 1</title>
    <desc>Created with Sketch.</desc>
    <defs>
        <polygon id="path-1" points="-0.000236065574 13.6122449 13.5735344 13.6122449 13.5735344 0.00017755102 -0.000236065574 0.00017755102 -0.000236065574 13.6122449"></polygon>
        <polygon id="path-3" points="0 58 72 58 72 0 0 0"></polygon>
    </defs>
    <g id="Page-1" stroke="none" stroke-width="1" fill="none" fill-rule="evenodd">
        <g id="icons" transform="translate(-225.000000, -63.000000)">
            <g id="Page-1" transform="translate(225.000000, 63.000000)">
                <polygon id="Fill-1" fill="#4A6174" points="50.5517241 5 50.5517241 6.16923077 55.8275862 6.16923077 55.8275862 41.8307692 7.17241379 41.8307692 7.17241379 37.7384615 6 37.7384615 6 43 57 43 57 5"></polygon>
                <g id="Group-12">
                    <path d="M22.7075016,28.549198 L22.7116328,27.4886265 C22.7157639,26.3783408 22.0819279,25.3621571 21.0774689,24.869749 L17.4456,23.0705653 C16.9421902,22.8231776 16.6240918,22.3136061 16.6264525,21.7566878 L16.6264525,20.4682592 C16.6276328,20.3694224 16.6630426,20.2741367 16.7261902,20.1977898 C16.8135344,20.0948102 16.8996984,19.979402 16.9905836,19.8545245 C17.4450098,19.214749 17.8038295,18.5134224 18.0570098,17.7724429 C18.0959607,17.659402 18.1809443,17.5670755 18.2913049,17.5185449 C18.6690098,17.3569735 18.9127475,16.9864837 18.9103869,16.5781163 L18.9103869,15.0713 C18.9097967,14.817402 18.8141902,14.5723816 18.6418623,14.3841776 C18.5698623,14.3054633 18.5297311,14.2030755 18.529141,14.0965449 L18.529141,12.976198 C18.5285508,12.9602184 18.5285508,12.9448306 18.529141,12.928851 C18.5922885,12.1659735 18.3473705,11.4096061 17.8492721,10.8248714 C17.1599607,10.0519327 16.0156328,9.65717755 14.4381246,9.65717755 C12.8600262,9.65717755 11.7162885,10.0519327 11.0316984,10.8296061 C10.5359607,11.4107898 10.2916328,12.1618306 10.3512393,12.9199735 C10.3518295,12.9377286 10.3518295,12.9543 10.3512393,12.9720551 L10.3512393,14.1006878 C10.3512393,14.2078102 10.310518,14.3096061 10.238518,14.3889122 C10.0661902,14.5771163 9.97058361,14.8215449 9.96940328,15.0754429 L9.96940328,16.5869939 C9.96881311,16.9042184 10.1163541,17.2036878 10.3683541,17.398402 C10.4433049,17.4569939 10.4970098,17.5386673 10.5200262,17.630402 C10.7684852,18.5619531 11.1963541,19.4372796 11.7812066,20.2066673 C11.840223,20.2818306 11.8720918,20.3735653 11.872682,20.4682592 L11.872682,21.7223612 C11.8732721,22.2591571 11.5770098,22.7539327 11.1007475,23.010198 L7.70730492,24.8437082 C6.75596066,25.3574224 6.16579672,26.3463816 6.16874754,27.4199735 L6.16874754,28.549198 L22.7075016,28.549198 Z M21.4634361,24.1098306 C22.7600262,24.7472388 23.5785836,26.058749 23.5744525,27.4927694 L23.5744525,28.9788714 C23.5744525,29.2156061 23.3802885,29.4079531 23.140682,29.4079531 L5.73969836,29.4079531 C5.50068197,29.4079531 5.30651803,29.2156061 5.30651803,28.9788714 L5.30651803,27.4158306 C5.30651803,26.029749 6.07137049,24.7543408 7.3000918,24.0926673 L10.6935344,22.2591571 C10.8912393,22.1532184 11.0145836,21.9490347 11.0145836,21.7265041 L11.0145836,20.6103 C10.4250098,19.8142796 9.98415738,18.9194224 9.7138623,17.9695245 C9.32317377,17.6126469 9.10127213,17.1095857 9.10245246,16.582851 L9.10245246,15.0754429 C9.10422295,14.6694429 9.23819016,14.2752796 9.48428852,13.9503612 L9.48428852,12.9933612 C9.40461639,12.0020347 9.72566557,11.0189939 10.3766164,10.2626265 C11.2353049,9.29201429 12.6003541,8.79842245 14.4381246,8.79842245 C16.2758951,8.79842245 17.6409443,9.29201429 18.4990426,10.2626265 C19.1476328,11.0243204 19.4680918,12.0079531 19.3919607,13.0016469 L19.3919607,13.9503612 C19.6321574,14.2770551 19.7596328,14.6718102 19.7560918,15.0754429 L19.7560918,16.5739735 C19.7549115,17.249851 19.3896,17.8736469 18.7982557,18.2098102 C18.5232393,18.9726878 18.1461246,19.6947286 17.6757639,20.3569939 L17.4721574,20.6274633 L17.4721574,21.7655653 C17.474518,22.0011163 17.6143869,22.2135857 17.8315672,22.3106469 L21.4634361,24.1098306 Z" id="Fill-2" fill="#4A6174"></path>
                    <g id="Group-6" transform="translate(58.426230, 44.387755)">
                        <mask id="mask-2" fill="white">
                            <use xlink:href="#path-1"></use>
                        </mask>
                        <g id="Clip-5"></g>
                        <path d="M3.79569836,6.66425918 C3.70717377,6.66425918 3.6133377,6.69976939 3.54546885,6.76783061 L1.57668197,8.74219796 C1.44153443,8.87891224 1.44153443,9.09670816 1.57668197,9.23283061 C1.71300984,9.3695449 1.9360918,9.3695449 2.07182951,9.23283061 L4.04061639,7.25846327 C4.17694426,7.12234082 4.17694426,6.9045449 4.04061639,6.76783061 C3.97274754,6.69976939 3.88481311,6.66425918 3.79569836,6.66425918 L3.79569836,6.66425918 Z M5.20441967,5.21899388 L8.17353443,13.1324429 L9.63596066,10.6508714 L12.589141,13.6124224 L13.5735344,12.6252388 L10.6203541,9.66368776 L13.0955016,8.19652449 L5.20441967,5.21899388 Z M0.347960656,5.06097347 C0.155567213,5.06097347 -0.000236065574,5.21721837 -0.000236065574,5.41015714 C-0.000236065574,5.60309592 0.155567213,5.75934082 0.347960656,5.75934082 L3.48055082,5.75934082 C3.67294426,5.75934082 3.82874754,5.60309592 3.82874754,5.41015714 C3.82874754,5.21721837 3.67294426,5.06097347 3.48055082,5.06097347 L0.347960656,5.06097347 Z M8.96199344,1.48332041 C8.87346885,1.48332041 8.78553443,1.51883061 8.71766557,1.58689184 L6.74887869,3.56125918 C6.61255082,3.69738163 6.61255082,3.91576939 6.74887869,4.05189184 C6.88461639,4.18801429 7.10238689,4.18801429 7.23812459,4.05189184 L9.20691148,2.07752449 C9.34264918,1.94199388 9.34264918,1.72301429 9.20691148,1.58689184 C9.13904262,1.51883061 9.0511082,1.48332041 8.96199344,1.48332041 L8.96199344,1.48332041 Z M1.82691148,1.48332041 C1.73838689,1.48332041 1.64455082,1.51883061 1.57668197,1.58689184 C1.44153443,1.72301429 1.44153443,1.94199388 1.57668197,2.07752449 L3.54546885,4.05189184 C3.68179672,4.18801429 3.90487869,4.18801429 4.04061639,4.05189184 C4.17694426,3.91576939 4.17694426,3.69738163 4.04061639,3.56125918 L2.07182951,1.58689184 C2.00396066,1.51883061 1.91602623,1.48332041 1.82691148,1.48332041 L1.82691148,1.48332041 Z M5.39445246,0.00017755102 C5.20264918,0.00017755102 5.0468459,0.156422449 5.0468459,0.349361224 L5.0468459,3.49023878 C5.0468459,3.68317755 5.20264918,3.83942245 5.39445246,3.83942245 C5.5868459,3.83942245 5.74264918,3.68317755 5.74264918,3.49023878 L5.74264918,0.349361224 C5.74264918,0.156422449 5.5868459,0.00017755102 5.39445246,0.00017755102 L5.39445246,0.00017755102 Z" id="Fill-4" fill="#4A6174" mask="url(#mask-2)"></path>
                    </g>
                    <mask id="mask-4" fill="white">
                        <use xlink:href="#path-3"></use>
                    </mask>
                    <g id="Clip-8"></g>
                    <path d="M1.18032787,37.2857143 L50.1639344,37.2857143 L50.1639344,1.18367347 L1.18032787,1.18367347 L1.18032787,37.2857143 Z M0,38.4693878 L51.3442623,38.4693878 L51.3442623,0 L0,0 L0,38.4693878 Z" id="Fill-7" fill="#4A6174" mask="url(#mask-4)"></path>
                    <polygon id="Fill-9" fill="#4A6174" mask="url(#mask-4)" points="29.5081967 29.5918367 46.6229508 29.5918367 46.6229508 23.6734694 29.5081967 23.6734694"></polygon>
                    <polygon id="Fill-10" fill="#4A6174" mask="url(#mask-4)" points="28.9180328 9.46938776 46.0327869 9.46938776 46.0327869 8.28571429 28.9180328 8.28571429"></polygon>
                    <polygon id="Fill-11" fill="#4A6174" mask="url(#mask-4)" points="28.9180328 12.4285714 43.6721311 12.4285714 43.6721311 11.244898 28.9180328 11.244898"></polygon>
                </g>
            </g>
        </g>
    </g>
</svg>