<?xml version="1.0" encoding="UTF-8"?>
<svg width="68px" height="50px" viewBox="0 0 68 50" version="1.1" xmlns="http://www.w3.org/2000/svg" xmlns:xlink="http://www.w3.org/1999/xlink">
    <!-- Generator: Sketch 47 (45396) - http://www.bohemiancoding.com/sketch -->
    <title>Page 1</title>
    <desc>Created with Sketch.</desc>
    <defs>
        <polygon id="path-1" points="0 49.2857143 67.6614286 49.2857143 67.6614286 0.11 0 0.11"></polygon>
    </defs>
    <g id="Page-1" stroke="none" stroke-width="1" fill="none" fill-rule="evenodd">
        <g id="icons" transform="translate(-733.000000, -71.000000)">
            <g id="Page-1" transform="translate(733.000000, 71.000000)">
                <polygon id="Fill-1" fill="#4A6174" points="7.10285714 6.03578571 17.2714286 6.03578571 17.2714286 4.58364286 7.10285714 4.58364286"></polygon>
                <polygon id="Fill-2" fill="#4A6174" points="5.08428571 14.7515 15.2528571 14.7515 15.2528571 13.2993571 5.08428571 13.2993571"></polygon>
                <polygon id="Fill-3" fill="#4A6174" points="2.905 23.4679286 13.0735714 23.4679286 13.0735714 22.0150714 2.905 22.0150714"></polygon>
                <polygon id="Fill-4" fill="#4A6174" points="4.19785714 6.03578571 5.65 6.03578571 5.65 4.58364286 4.19785714 4.58364286"></polygon>
                <polygon id="Fill-5" fill="#4A6174" points="2.17928571 14.7515 3.63142857 14.7515 3.63142857 13.2993571 2.17928571 13.2993571"></polygon>
                <polygon id="Fill-6" fill="#4A6174" points="0 23.4679286 1.45285714 23.4679286 1.45285714 22.0150714 0 22.0150714"></polygon>
                <g id="Group-16" transform="translate(0.000000, 0.604357)">
                    <path d="M50.9067857,17.6266429 L50.9096429,16.9902143 C50.9125,16.3245 50.5310714,15.7152143 49.9267857,15.4195 L47.7417857,14.3402143 C47.4389286,14.1916429 47.2475,13.8866429 47.2489286,13.5523571 L47.2489286,12.7795 C47.2496429,12.7202143 47.2703571,12.6630714 47.3089286,12.6166429 C47.3610714,12.5552143 47.4132143,12.4859286 47.4682143,12.4109286 C47.7410714,12.0273571 47.9575,11.6059286 48.1096429,11.1616429 C48.1325,11.0937857 48.1839286,11.0387857 48.2503571,11.0095 C48.4782143,10.9130714 48.6246429,10.6909286 48.6232143,10.4452143 L48.6232143,9.54164286 C48.6225,9.3895 48.5653571,9.24235714 48.4610714,9.1295 C48.4182143,9.08235714 48.3932143,9.02092857 48.3932143,8.95664286 L48.3932143,8.2845 C48.3925,8.27521429 48.3925,8.26592857 48.3932143,8.25664286 C48.4310714,7.79878571 48.2839286,7.3445 47.9839286,6.99378571 C47.5696429,6.53092857 46.8810714,6.29378571 45.9325,6.29378571 C44.9832143,6.29378571 44.2946429,6.53092857 43.8832143,6.99664286 C43.5846429,7.34521429 43.4382143,7.79592857 43.4739286,8.25092857 C43.4746429,8.26164286 43.4746429,8.27164286 43.4739286,8.28235714 L43.4739286,8.9595 C43.4739286,9.02307143 43.4496429,9.08521429 43.4060714,9.13164286 C43.3025,9.24521429 43.2439286,9.39235714 43.2439286,9.5445 L43.2439286,10.4509286 C43.2432143,10.6409286 43.3325,10.8209286 43.4839286,10.9380714 C43.5289286,10.9730714 43.5610714,11.0216429 43.5753571,11.0766429 C43.7246429,11.6352143 43.9825,12.1609286 44.3339286,12.6223571 C44.3696429,12.6673571 44.3889286,12.7223571 44.3889286,12.7795 L44.3889286,13.5316429 C44.3889286,13.8537857 44.2110714,14.1502143 43.9246429,14.3045 L41.8832143,15.4045 C41.3103571,15.7123571 40.9553571,16.3052143 40.9575,16.9495 L40.9575,17.6266429 L50.9067857,17.6266429 Z M50.1589286,14.9630714 C50.9389286,15.3466429 51.4310714,16.1330714 51.4282143,16.9930714 L51.4282143,17.8845 C51.4282143,18.0273571 51.3117857,18.1423571 51.1675,18.1423571 L40.6996429,18.1423571 C40.5553571,18.1423571 40.4389286,18.0273571 40.4389286,17.8845 L40.4389286,16.9473571 C40.4389286,16.1159286 40.8982143,15.3502143 41.6375,14.9537857 L43.6796429,13.8537857 C43.7982143,13.7902143 43.8725,13.6673571 43.8725,13.5345 L43.8725,12.8645 C43.5175,12.3866429 43.2532143,11.8502143 43.0903571,11.2802143 C42.8553571,11.0659286 42.7217857,10.7645 42.7225,10.4480714 L42.7225,9.5445 C42.7232143,9.30092857 42.8039286,9.0645 42.9517857,8.8695 L42.9517857,8.29521429 C42.9039286,7.70021429 43.0967857,7.11092857 43.4889286,6.65735714 C44.0053571,6.0745 44.8267857,5.77807143 45.9325,5.77807143 C47.0375,5.77807143 47.8589286,6.0745 48.3753571,6.65735714 C48.7653571,7.11378571 48.9582143,7.70378571 48.9125,8.30021429 L48.9125,8.8695 C49.0567857,9.06521429 49.1339286,9.30235714 49.1317857,9.5445 L49.1317857,10.4430714 C49.1310714,10.8487857 48.9110714,11.2223571 48.5553571,11.4245 C48.3903571,11.8816429 48.1625,12.3152143 47.8803571,12.7123571 L47.7575,12.8752143 L47.7575,13.5573571 C47.7589286,13.6987857 47.8432143,13.8266429 47.9739286,13.8845 L50.1589286,14.9630714 Z" id="Fill-7" fill="#4A6174"></path>
                    <polygon id="Fill-9" fill="#4A6174" points="37.8571429 31.5385 37.8571429 37.2527857 42.8571429 34.3956429"></polygon>
                    <mask id="mask-2" fill="white">
                        <use xlink:href="#path-1"></use>
                    </mask>
                    <g id="Clip-12"></g>
                    <polygon id="Fill-11" fill="#4A6174" mask="url(#mask-2)" points="32.8571429 22.2528571 56.4285714 22.2528571 56.4285714 21.5385714 32.8571429 21.5385714"></polygon>
                    <polygon id="Fill-13" fill="#4A6174" mask="url(#mask-2)" points="31.4285714 25.11 50.7142857 25.11 50.7142857 24.3957143 31.4285714 24.3957143"></polygon>
                    <polygon id="Stroke-14" stroke="#4A6174" stroke-width="2" mask="url(#mask-2)" points="66.7340714 0.824214286 32.1033571 0.824214286 31.1105 4.39564286 23.6690714 4.39564286 11.2612143 48.5713571 46.5462143 48.5713571 47.5005 44.9999286 55.0612143 44.9999286"></polygon>
                    <polyline id="Stroke-15" stroke="#4A6174" stroke-width="2" mask="url(#mask-2)" points="47.8571429 45.1099286 19.2857143 44.3956429 32.0235714 0.824214286"></polyline>
                </g>
            </g>
        </g>
    </g>
</svg>