<?xml version="1.0" encoding="UTF-8"?>
<svg width="50px" height="51px" viewBox="0 0 50 51" version="1.1" xmlns="http://www.w3.org/2000/svg" xmlns:xlink="http://www.w3.org/1999/xlink">
    <!-- Generator: Sketch 47 (45396) - http://www.bohemiancoding.com/sketch -->
    <title>especialista</title>
    <desc>Created with Sketch.</desc>
    <defs>
        <polygon id="path-1" points="24.9232308 33.2093023 49.8461538 33.2093023 49.8461538 0 0.000307692308 0 0.000307692308 33.2093023"></polygon>
        <polygon id="path-3" points="24.7727273 0.370639535 0.0757575758 0.370639535 0.0757575758 17.4946308 24.7727273 17.4946308 24.7727273 0.370639535"></polygon>
        <polygon id="path-5" points="0 51 50 51 50 1.18604651 0 1.18604651"></polygon>
    </defs>
    <g id="Page-1" stroke="none" stroke-width="1" fill="none" fill-rule="evenodd">
        <g id="icons" transform="translate(-654.000000, -65.000000)">
            <g id="especialista" transform="translate(654.000000, 65.000000)">
                <g id="Page-1">
                    <g id="Group-3" transform="translate(0.000000, 17.790698)">
                        <mask id="mask-2" fill="white">
                            <use xlink:href="#path-1"></use>
                        </mask>
                        <g id="Clip-2"></g>
                        <path d="M33.4618462,27.571444 C33.2303077,27.1080584 32.9233846,26.7219037 32.5387692,26.2585181 C31.7695385,25.4089778 30.538,24.7911303 29.1533846,24.0960519 C28.9233846,23.94159 28.6149231,23.8643591 28.3841538,23.7098972 C29.308,22.7058951 30.6918462,22.1652785 32.3849231,22.3197404 C32.8456923,22.3197404 33.308,22.3969713 33.8464615,22.3969713 C34.3841538,23.4009735 34.9226154,24.2505138 35.538,25.0228231 C36.0764615,25.7179016 36.9233846,26.1040562 37.7695385,26.1040562 C38.6926154,26.1040562 39.4618462,25.7179016 40.0772308,25.0228231 L40.3849231,24.7138994 C40.9226154,24.1732829 41.3072308,23.6326663 41.9233846,22.4742023 C42.4610769,22.4742023 42.9233846,22.3969713 43.4618462,22.3969713 L44.538,22.3969713 C45.1533846,22.4742023 45.7695385,22.6286641 46.2310769,22.8603569 C46.6156923,23.0148188 46.9233846,23.3237426 47.2303077,23.5554354 C47.6149231,23.94159 47.9233846,24.4049757 48.1541538,24.9455922 C48.2303077,25.0228231 48.2303077,25.177285 48.2303077,25.254516 L48.6149231,26.41298 L48.8464615,27.571444 L33.4618462,27.571444 Z M1.30723077,32.0508383 C1.30723077,30.5062196 1.46107692,28.6526771 2.92338462,27.1080584 C3.53876923,26.41298 4.69261538,25.8723634 6.00030769,25.254516 C7.15415385,24.7138994 8.38415385,24.0960519 9.538,23.2465116 C10.7695385,25.254516 12.1541538,27.0308275 13.6926154,28.4982153 C14.6926154,29.5022174 16.0003077,29.965603 17.308,29.965603 C18.6149231,29.965603 19.9226154,29.5022174 20.9226154,28.4982153 L21.0003077,28.4209843 C22.5387692,26.8763656 23.8464615,25.177285 25.0772308,23.1692807 C26.2310769,24.018821 27.5387692,24.6366685 28.6149231,25.177285 C29.9226154,25.7951325 31.0764615,26.41298 31.6918462,27.0308275 C33.1541538,28.5754462 33.308,30.4289886 33.308,31.9736074 L1.30723077,31.9736074 L1.30723077,32.0508383 Z M13.0772308,19.230503 C14.308,20.2345051 15.7695385,20.7751217 17.308,20.7751217 C18.8464615,20.7751217 20.3072308,20.2345051 21.5387692,19.230503 C22.2303077,20.5434289 23.0772308,21.624662 24.0772308,22.4742023 C22.9233846,24.4049757 21.6156923,26.1040562 20.0772308,27.571444 L20.4618462,27.9575987 L20.0772308,27.648675 C18.5387692,29.1932937 16.0764615,29.1932937 14.538,27.648675 C13.0772308,26.1812872 11.6918462,24.4049757 10.538,22.4742023 C11.4610769,21.624662 12.3849231,20.5434289 13.0772308,19.230503 L13.0772308,19.230503 Z M11.0764615,14.2104922 L10.8464615,13.5926447 L10.2310769,13.8243375 C10.0772308,13.7471065 9.61569231,13.0520281 9.61569231,11.8163332 C9.61569231,10.5034072 10.0772308,9.88555976 10.2310769,9.80832883 L10.6156923,9.57663602 L10.6918462,9.11325041 L10.6918462,8.80432666 C10.6918462,8.49540292 10.6156923,8.26371011 10.6156923,7.95478637 C10.6156923,7.8003245 10.6918462,7.64586263 10.6918462,7.49140076 C10.9226154,6.87355327 11.6156923,6.56462953 12.2303077,6.79632234 C15.2310769,7.8003245 17.7695385,6.7190914 17.9233846,6.7190914 C18.9995385,6.25570579 19.9226154,5.86955111 20.8464615,5.71508924 C21.5387692,5.56062737 22.308,5.79232017 22.9233846,6.25570579 C23.4618462,6.7190914 23.7687692,7.33693889 23.8464615,8.03201731 C23.8464615,8.34094105 23.7687692,8.57263386 23.7687692,8.8815576 L23.7687692,9.19048134 L23.8464615,9.80832883 L24.2310769,9.88555976 C24.3841538,9.88555976 24.8464615,10.5806382 24.8464615,11.8935641 C24.8464615,13.1292591 24.4618462,13.8243375 24.2310769,13.9015684 L23.6149231,13.6698756 L23.4618462,14.2877231 C22.4610769,17.6086533 20.0003077,19.6938886 17.308,19.6938886 C14.538,19.6166577 12.0764615,17.4541915 11.0764615,14.2104922 L11.0764615,14.2104922 Z M12.6149231,2.08523526 L13.0772308,1.93077339 C14.308,1.54461871 15.6918462,1.31292591 17.2303077,1.31292591 C18.7687692,1.31292591 20.1533846,1.54461871 21.3849231,1.93077339 L21.8456923,2.08523526 C23.4618462,2.54862088 24.1533846,2.78031368 24.0772308,5.79232017 C23.9233846,5.6378583 23.8464615,5.48339643 23.6926154,5.40616549 C22.8456923,4.71108707 21.7695385,4.47939427 20.6918462,4.63385614 C19.6926154,4.78831801 18.6149231,5.17447269 17.4610769,5.71508924 C17.4610769,5.71508924 15.1533846,6.64186047 12.6149231,5.79232017 C11.8456923,5.56062737 11.0003077,5.71508924 10.3849231,6.17847485 C10.3072308,2.78031368 11.0003077,2.62585181 12.6149231,2.08523526 L12.6149231,2.08523526 Z M38.308,17.5314224 C38.308,17.5314224 38.0772308,17.6086533 37.7695385,17.6086533 C36.6156923,17.6086533 34.538,16.9135749 33.308,12.3569497 L33.308,12.1252569 L33.0772308,12.048026 C33.0772308,12.048026 32.6149231,11.6618713 32.6926154,9.73109789 C32.6926154,9.57663602 32.8456923,9.57663602 32.8456923,9.57663602 C32.9233846,9.57663602 33.0772308,9.57663602 33.3841538,9.73109789 L33.4618462,9.80832883 C33.5387692,9.80832883 33.9233846,9.9627907 34.6156923,9.9627907 C35.6156923,9.9627907 37.3849231,9.65386696 38.9995385,7.8003245 C39.3841538,9.19048134 40.2310769,11.5074094 42.0764615,12.8975663 C41.9233846,13.7471065 41.0764615,16.6046512 38.308,17.5314224 L38.308,17.5314224 Z M35.0772308,18.1492699 L35.2310769,18.1492699 L35.1533846,17.9175771 C36.0764615,18.6126555 37.0764615,18.8443483 37.7695385,18.8443483 C38.2303077,18.8443483 38.6149231,18.7671174 38.6149231,18.7671174 C39.308,18.5354246 39.8464615,18.2265008 40.3849231,17.8403461 L40.3849231,17.9175771 C40.4618462,17.9175771 40.538,17.994808 40.6156923,17.994808 C39.9226154,20.1572742 40.538,21.624662 40.7695385,22.1652785 C40.2310769,23.0920498 39.9226154,23.5554354 39.4618462,24.0960519 L39.1533846,24.4822066 C38.8464615,24.8683613 38.308,25.1000541 37.7695385,25.1000541 C37.2303077,25.1000541 36.7695385,24.8683613 36.3849231,24.4822066 C35.8464615,23.8643591 35.3849231,23.0920498 34.9226154,22.1652785 C35.0772308,21.547431 35.6156923,20.0800433 35.0772308,18.1492699 L35.0772308,18.1492699 Z M31.1541538,16.759113 C30.8464615,15.600649 29.308,9.49940508 32.8456923,5.79232017 C32.8456923,5.79232017 36.0764615,2.23969713 41.0003077,4.5566252 C45.7695385,6.87355327 45.0003077,14.7511087 44.9226154,15.3689562 L44.538,16.759113 C44.0772308,16.9908058 42.8456923,17.3769605 41.3072308,16.9135749 C42.9995385,15.0600324 43.308,12.7431044 43.308,12.5886425 L43.3841538,12.2024878 L43.0772308,11.970795 C40.4618462,10.3489454 39.9226154,6.33293672 39.9226154,6.25570579 L39.6926154,4.78831801 L38.8464615,6.02401298 C37.3849231,8.18647918 35.6918462,8.64986479 34.6156923,8.64986479 C34.2310769,8.64986479 33.9233846,8.57263386 33.8464615,8.57263386 C33.4618462,8.41817198 33.1541538,8.26371011 32.8456923,8.26371011 C31.9233846,8.26371011 31.6156923,9.03601947 31.5387692,9.42217415 C31.3849231,11.5846403 31.8456923,12.4341806 32.2303077,12.7431044 C32.7695385,14.7511087 33.5387692,16.0640346 34.308,16.9135749 C33.3841538,17.2224986 32.0003077,17.2224986 31.1541538,16.759113 L31.1541538,16.759113 Z M49.6156923,26.1812872 L49.2310769,24.9455922 C49.1533846,24.7911303 49.1533846,24.6366685 49.0772308,24.5594375 C48.7687692,23.8643591 48.3841538,23.2465116 47.8456923,22.7058951 C47.4610769,22.3197404 47.0003077,22.0108167 46.5387692,21.7791239 C45.9226154,21.4702001 45.1533846,21.2385073 44.4618462,21.1612764 C44.0772308,21.1612764 43.6149231,21.0840454 43.2303077,21.1612764 C42.6926154,21.1612764 42.1541538,21.2385073 41.6156923,21.2385073 C41.3849231,20.7751217 41.1541538,19.6166577 41.6918462,18.1492699 C43.6926154,18.5354246 45.2310769,17.6858843 45.3072308,17.6086533 L45.538,17.5314224 L46.0764615,15.6778799 L46.0764615,15.600649 C46.1541538,15.2144943 47.308,6.33293672 41.5387692,3.55262304 C35.7695385,0.772309356 32.0003077,5.02001082 32.0003077,5.02001082 C27.5387692,9.57663602 30.0003077,16.9908058 30.0772308,17.2997296 L30.1533846,17.4541915 L30.3072308,17.5314224 C31.0764615,18.0720389 32.1541538,18.2265008 33.0772308,18.2265008 L33.8464615,18.2265008 C34.308,19.6166577 33.9995385,20.6978908 33.8464615,21.2385073 C33.308,21.2385073 32.8456923,21.1612764 32.308,21.1612764 C30.1533846,21.0068145 28.308,21.7791239 27.1541538,23.1692807 C25.2310769,22.0880476 23.3841538,20.6978908 22.308,18.3809627 C23.1541538,17.4541915 23.8464615,16.2957274 24.308,14.9828015 C25.2310769,14.8283396 25.8464615,13.5926447 25.8464615,11.8163332 C25.8464615,10.6578691 25.538,9.42217415 24.8464615,8.8815576 C24.9226154,8.03201731 25.0772308,7.18247701 25.0772308,6.25570579 C25.3072308,2.08523526 24.1533846,1.54461871 22.0764615,0.849540292 L21.6156923,0.695078421 C20.0003077,0.154461871 18.2303077,0.0772309356 17.1541538,0 C16.0003077,0 14.308,0.154461871 12.6926154,0.695078421 L12.2303077,0.849540292 C10.1533846,1.46738778 8.99953846,2.08523526 9.23107692,6.25570579 C9.308,7.10524608 9.38415385,8.03201731 9.46184615,8.8815576 C8.76876923,9.42217415 8.46184615,10.6578691 8.46184615,11.8163332 C8.46184615,13.5154137 9.07723077,14.8283396 10.0003077,14.9828015 C10.4618462,16.2957274 11.1541538,17.4541915 12.0003077,18.3809627 C10.6156923,21.4702001 7.84569231,22.8603569 5.30723077,24.0960519 C3.92338462,24.7911303 2.69261538,25.4089778 1.92338462,26.2585181 C0.000307692308,28.3437534 0.000307692308,30.8923743 0.000307692308,32.5914548 L0.000307692308,33.2093023 L34.2310769,33.2093023 L34.2310769,32.5914548 C34.2310769,31.5102217 34.2310769,30.1200649 33.7687692,28.7299081 L49.1533846,28.7299081 C49.3841538,28.7299081 49.538,28.6526771 49.6926154,28.4982153 C49.8464615,28.3437534 49.8464615,28.1120606 49.8464615,27.9575987 L49.6156923,26.1812872 Z" id="Fill-1" fill="#4A6174" mask="url(#mask-2)"></path>
                    </g>
                    <g id="Group-6" transform="translate(17.857143, 0.000000)">
                        <mask id="mask-4" fill="white">
                            <use xlink:href="#path-3"></use>
                        </mask>
                        <g id="Clip-5"></g>
                        <path d="M1.21212121,2.44592442 C1.21212121,1.92777035 1.66666667,1.48226163 2.1969697,1.48226163 L17.2727273,1.48226163 C17.8030303,1.48226163 18.2575758,1.92777035 18.2575758,2.44592442 L18.2575758,9.19230523 C18.2575758,9.71120058 17.8030303,10.1552267 17.2727273,10.1552267 L6.51515152,10.1552267 L3.78787879,12.528061 L3.78787879,10.1552267 L2.1969697,10.1552267 C1.66666667,10.1552267 1.21212121,9.71120058 1.21212121,9.19230523 L1.21212121,2.44592442 Z M19.3939394,9.19230523 L19.3939394,4.00335174 L22.6515152,4.00335174 C23.1818182,4.00335174 23.6363636,4.44737791 23.6363636,4.96627326 L23.6363636,12.2308081 C23.6363636,12.7497035 23.1818182,13.1944709 22.6515152,13.1944709 L21.5151515,13.1944709 L21.5151515,15.0476686 L19.3939394,13.1944709 L9.62121212,13.1944709 C9.09090909,13.1944709 8.63636364,12.7497035 8.63636364,12.2308081 L8.63636364,11.3412733 L17.2727273,11.3412733 C18.4848485,11.2671453 19.3939394,10.3776105 19.3939394,9.19230523 L19.3939394,9.19230523 Z M2.1969697,11.2671453 L2.65151515,11.2671453 L2.65151515,15.0476686 L6.96969697,11.2671453 L7.5,11.2671453 L7.5,12.1574215 C7.5,13.3427267 8.48484848,14.2322616 9.62121212,14.2322616 L18.9393939,14.2322616 L22.6515152,17.4946308 L22.6515152,14.2322616 C23.8636364,14.2322616 24.7727273,13.2693401 24.7727273,12.1574215 L24.7727273,4.96627326 C24.7727273,3.78096802 23.7878788,2.89143314 22.6515152,2.89143314 L19.3939394,2.89143314 L19.3939394,2.44592442 C19.3939394,1.25987791 18.4090909,0.370343023 17.2727273,0.370343023 L2.1969697,0.370343023 C1.06060606,0.370343023 0.0757575758,1.25987791 0.0757575758,2.44592442 L0.0757575758,9.19230523 C0.0757575758,10.3776105 1.06060606,11.2671453 2.1969697,11.2671453 L2.1969697,11.2671453 Z" id="Fill-4" fill="#4A6174" mask="url(#mask-4)"></path>
                    </g>
                    <mask id="mask-6" fill="white">
                        <use xlink:href="#path-5"></use>
                    </mask>
                    <g id="Clip-8"></g>
                    <polygon id="Fill-7" fill="#4A6174" mask="url(#mask-6)" points="21.4285714 5.93023256 33.3333333 5.93023256 33.3333333 4.74418605 21.4285714 4.74418605"></polygon>
                    <polygon id="Fill-9" fill="#4A6174" mask="url(#mask-6)" points="23.8095238 8.30232558 32.1428571 8.30232558 32.1428571 7.11627907 23.8095238 7.11627907"></polygon>
                </g>
            </g>
        </g>
    </g>
</svg>