<?xml version="1.0" encoding="UTF-8"?>
<svg width="43px" height="43px" viewBox="0 0 43 43" version="1.1" xmlns="http://www.w3.org/2000/svg" xmlns:xlink="http://www.w3.org/1999/xlink">
    <!-- Generator: Sketch 47 (45396) - http://www.bohemiancoding.com/sketch -->
    <title>menor distancia</title>
    <desc>Created with Sketch.</desc>
    <defs>
        <polygon id="path-1" points="0.845016406 0.623766447 0.221249959 0.623766447 0.221249959 0.0682400493 0.845016406 0.0682400493 0.845016406 0.623766447"></polygon>
        <polygon id="path-3" points="0.662439967 0.0682400493 0.662439967 0.692006497 0.221249959 0.692006497 0.221249959 0.0682400493 0.662439967 0.0682400493"></polygon>
    </defs>
    <g id="Page-1" stroke="none" stroke-width="1" fill="none" fill-rule="evenodd">
        <g id="icons" transform="translate(-503.000000, -70.000000)">
            <g id="menor-distancia" transform="translate(503.000000, 70.000000)">
                <g id="Page-1">
                    <path d="M9,43 L42,43 L42,10 L9,10 L9,43 Z M9.98584327,42.0147515 L41.0153829,42.0147515 L41.0153829,10.9846354 L9.98584327,10.9846354 L9.98584327,42.0147515 Z" id="Fill-1" fill="#4A6174"></path>
                    <path d="M0,33 L33,33 L33,0 L0,0 L0,33 Z M0.985230186,32.0141567 L32.0147698,32.0141567 L32.0147698,0.9846171 L0.985230186,0.9846171 L0.985230186,32.0141567 Z" id="Fill-2" fill="#4A6174"></path>
                    <g id="Group-31" transform="translate(3.000000, 3.000000)">
                        <path d="M24.1884153,25.2415202 L10.6302278,25.2415202 L10.6302278,24.3189696 C10.6277327,23.4407065 11.1117755,22.6323051 11.8914836,22.2131341 L14.6734819,20.7135995 C15.0639597,20.504014 15.3066049,20.0998134 15.3059811,19.6613056 L15.3059811,18.6358335 C15.3059811,18.5584865 15.2797829,18.4830107 15.2317529,18.4218816 C14.7520765,17.793125 14.400896,17.0770412 14.1969243,16.3154223 C14.1782113,16.2405704 14.1345477,16.1744511 14.0727948,16.1264211 C13.8663281,15.9667369 13.7459412,15.7215967 13.746565,15.4627336 L13.746565,14.227676 C13.7471887,14.0199618 13.8251595,13.819109 13.9661308,13.6656625 C14.0260123,13.6014145 14.059072,13.5178298 14.059072,13.4305025 L14.059072,12.5073282 C14.0596957,12.4936053 14.0596957,12.4792587 14.059072,12.4655358 C14.0104182,11.8448882 14.2106472,11.231102 14.6167192,10.755792 C15.178109,10.1207977 16.1162537,9.79768672 17.4093215,9.79768672 C18.7023894,9.79768672 19.6405341,10.1207977 20.2056665,10.7520494 C20.6148573,11.2304782 20.8150863,11.8486308 20.7633137,12.4723972 C20.76269,12.4854963 20.76269,12.4979717 20.7633137,12.5110708 L20.7633137,13.4273837 C20.7639375,13.5140872 20.7969971,13.5976719 20.8556312,13.6625436 C20.9972262,13.8166139 21.0758207,14.0162192 21.0764445,14.2239334 L21.0764445,15.4558722 C21.0783158,15.7895872 20.8780868,16.0921139 20.5680748,16.2243524 C20.4776287,16.2642735 20.4077669,16.3397492 20.3765785,16.4314429 C20.1688643,17.0377439 19.8744465,17.6109852 19.502058,18.1337015 C19.427206,18.2359992 19.3567204,18.3308117 19.285611,18.4150202 C19.2332146,18.4767731 19.2045214,18.5547439 19.2038976,18.6358335 L19.2038976,19.689375 C19.2020263,20.1441008 19.4621369,20.5607768 19.8750703,20.7628771 L22.8523076,22.2337184 C23.676303,22.6366715 24.1952767,23.4669046 24.1921579,24.3744848 L24.1884153,25.2415202 Z M23.1685572,21.612447 L20.1913199,20.1416057 C20.0135465,20.0623874 19.8987734,19.8883565 19.8962784,19.6956127 L19.8962784,18.7655769 L20.0634478,18.5447636 C20.4489354,18.0033343 20.7583236,17.4126275 20.9835033,16.7894848 C21.4687936,16.5150276 21.7682015,16.0047866 21.7688252,15.4527533 L21.7688252,14.227676 C21.7719441,13.8970798 21.6671513,13.5745926 21.4706649,13.3076205 L21.4706649,12.5322788 C21.5324178,11.7195111 21.2698121,10.9154762 20.7389868,10.2923335 C20.0353783,9.49952636 18.9157175,9.09594947 17.4093215,9.09594947 C15.9029256,9.09594947 14.7838886,9.49952636 14.08028,10.2923335 C13.5457122,10.9111098 13.2831065,11.714521 13.3479782,12.5247936 L13.3479782,13.3076205 C13.1465016,13.5727213 13.0367188,13.8958323 13.0354712,14.227676 L13.0354712,15.458991 C13.0342237,15.8900136 13.2163635,16.3010757 13.5369794,16.5929984 C13.7584165,17.3702114 14.1189535,18.1012657 14.6023725,18.7518541 L14.6023725,19.6644244 C14.6023725,19.8465642 14.5013224,20.0131098 14.3397669,20.0998134 L11.5577685,21.5981004 C10.5503857,22.1395296 9.92287664,23.1818434 9.92350041,24.315227 L9.92350041,25.5927007 C9.92350041,25.7866921 10.0825609,25.9438812 10.2784235,25.9438812 L24.5433384,25.9438812 C24.7404486,25.9438812 24.899509,25.7866921 24.899509,25.5927007 L24.899509,24.3782274 C24.9026279,23.2061703 24.2314552,22.1339157 23.1685572,21.612447 L23.1685572,21.612447 Z" id="Fill-3" fill="#4A6174"></path>
                        <g id="Group-7" transform="translate(5.613898, 38.673520)">
                            <mask id="mask-2" fill="white">
                                <use xlink:href="#path-1"></use>
                            </mask>
                            <g id="Clip-6"></g>
                            <path d="M0.442063281,0.289053372 L0.221249959,0.0682400493" id="Stroke-5" stroke="#4A6174" mask="url(#mask-2)"></path>
                        </g>
                        <path d="M5.36520234,38.2718141 L0.897787048,33.8043988" id="Stroke-8" stroke="#4A6174" stroke-dasharray="1.066,1.066"></path>
                        <path d="M0.66256472,33.5691765 L0.441751398,33.3483632" id="Stroke-10" stroke="#4A6174"></path>
                        <g id="Group-14" transform="translate(38.673520, 5.613898)">
                            <mask id="mask-4" fill="white">
                                <use xlink:href="#path-3"></use>
                            </mask>
                            <g id="Clip-13"></g>
                            <path d="M0.442063281,0.289053372 L0.221249959,0.0682400493" id="Stroke-12" stroke="#4A6174" mask="url(#mask-4)"></path>
                        </g>
                        <path d="M38.4248241,5.21213006 L33.9574088,0.744714762" id="Stroke-15" stroke="#4A6174" stroke-dasharray="1.066,1.066"></path>
                        <path d="M33.7221864,0.509554811 L33.5013731,0.288741488" id="Stroke-17" stroke="#4A6174"></path>
                        <path d="M6.05596131,5.9029514 L5.83514799,5.68213808" id="Stroke-19" stroke="#4A6174"></path>
                        <path d="M5.36520234,5.21213006 L0.897787048,0.744714762" id="Stroke-21" stroke="#4A6174" stroke-dasharray="1.066,1.066"></path>
                        <path d="M0.66256472,0.509554811 L0.441751398,0.288741488" id="Stroke-23" stroke="#4A6174"></path>
                        <path d="M37.8680501,38.3388067 L37.6472368,38.1179933" id="Stroke-25" stroke="#4A6174"></path>
                        <path d="M37.1772912,37.6480477 L32.7098759,33.1806324" id="Stroke-27" stroke="#4A6174" stroke-dasharray="1.066,1.066"></path>
                        <path d="M32.4746535,32.9454101 L32.2538402,32.7245968" id="Stroke-29" stroke="#4A6174"></path>
                    </g>
                </g>
            </g>
        </g>
    </g>
</svg>