<?xml version="1.0" encoding="UTF-8"?>
<svg width="50px" height="50px" viewBox="0 0 50 50" version="1.1" xmlns="http://www.w3.org/2000/svg" xmlns:xlink="http://www.w3.org/1999/xlink">
    <!-- Generator: Sketch 46.2 (44496) - http://www.bohemiancoding.com/sketch -->
    <title>noun_137131_cc</title>
    <desc>Created with Sketch.</desc>
    <defs></defs>
    <g id="Landing-Revelo" stroke="none" stroke-width="1" fill="none" fill-rule="evenodd">
        <g id="Home" transform="translate(-313.000000, -1248.000000)" fill-rule="nonzero" fill="#10364E">
            <g id="yellow" transform="translate(298.000000, 1224.000000)">
                <g id="noun_137131_cc" transform="translate(15.000000, 24.000000)">
                    <g id="Group">
                        <path d="M44.07277,49.9413146 L41.1384977,49.9413146 L41.1384977,47.0070423 L44.07277,47.0070423 L44.07277,49.9413146 Z M38.2042254,49.9413146 L35.2699531,49.9413146 L35.2699531,47.0070423 L38.2042254,47.0070423 L38.2042254,49.9413146 Z M32.3356808,49.9413146 L29.4014085,49.9413146 L29.4014085,47.0070423 L32.3356808,47.0070423 L32.3356808,49.9413146 Z M26.4671362,49.9413146 L23.5328638,49.9413146 L23.5328638,47.0070423 L26.4671362,47.0070423 L26.4671362,49.9413146 Z M20.5985915,49.9413146 L17.6643192,49.9413146 L17.6643192,47.0070423 L20.5985915,47.0070423 L20.5985915,49.9413146 Z M14.7300469,49.9413146 L11.7957746,49.9413146 L11.7957746,47.0070423 L14.7300469,47.0070423 L14.7300469,49.9413146 Z M8.86150235,49.9413146 L5.92723005,49.9413146 L5.92723005,47.0070423 L8.86150235,47.0070423 L8.86150235,49.9413146 Z" id="Shape"></path>
                        <rect id="Rectangle-path" x="0.058685446" y="47.0070423" width="2.9342723" height="2.9342723"></rect>
                        <path d="M2.99295775,44.07277 L0.058685446,44.07277 L0.058685446,41.1384977 L2.99295775,41.1384977 L2.99295775,44.07277 Z M2.99295775,38.2042254 L0.058685446,38.2042254 L0.058685446,35.2699531 L2.99295775,35.2699531 L2.99295775,38.2042254 Z M2.99295775,32.3356808 L0.058685446,32.3356808 L0.058685446,29.4014085 L2.99295775,29.4014085 L2.99295775,32.3356808 Z M2.99295775,26.4671362 L0.058685446,26.4671362 L0.058685446,23.5328638 L2.99295775,23.5328638 L2.99295775,26.4671362 Z M2.99295775,20.5985915 L0.058685446,20.5985915 L0.058685446,17.6643192 L2.99295775,17.6643192 L2.99295775,20.5985915 Z M2.99295775,14.7300469 L0.058685446,14.7300469 L0.058685446,11.7957746 L2.99295775,11.7957746 L2.99295775,14.7300469 Z M2.99295775,8.86150235 L0.058685446,8.86150235 L0.058685446,5.92723005 L2.99295775,5.92723005 L2.99295775,8.86150235 Z" id="Shape"></path>
                        <path d="M44.07277,2.99295775 L41.1384977,2.99295775 L41.1384977,0.058685446 L44.07277,0.058685446 L44.07277,2.99295775 Z M38.2042254,2.99295775 L35.2699531,2.99295775 L35.2699531,0.058685446 L38.2042254,0.058685446 L38.2042254,2.99295775 Z M32.3356808,2.99295775 L29.4014085,2.99295775 L29.4014085,0.058685446 L32.3356808,0.058685446 L32.3356808,2.99295775 Z M26.4671362,2.99295775 L23.5328638,2.99295775 L23.5328638,0.058685446 L26.4671362,0.058685446 L26.4671362,2.99295775 Z M20.5985915,2.99295775 L17.6643192,2.99295775 L17.6643192,0.058685446 L20.5985915,0.058685446 L20.5985915,2.99295775 Z M14.7300469,2.99295775 L11.7957746,2.99295775 L11.7957746,0.058685446 L14.7300469,0.058685446 L14.7300469,2.99295775 Z M8.86150235,2.99295775 L5.92723005,2.99295775 L5.92723005,0.058685446 L8.86150235,0.058685446 L8.86150235,2.99295775 Z" id="Shape"></path>
                        <rect id="Rectangle-path" x="47.0070423" y="0.058685446" width="2.9342723" height="2.9342723"></rect>
                        <path d="M49.9413146,44.07277 L47.0070423,44.07277 L47.0070423,41.1384977 L49.9413146,41.1384977 L49.9413146,44.07277 Z M49.9413146,38.2042254 L47.0070423,38.2042254 L47.0070423,35.2699531 L49.9413146,35.2699531 L49.9413146,38.2042254 Z M49.9413146,32.3356808 L47.0070423,32.3356808 L47.0070423,29.4014085 L49.9413146,29.4014085 L49.9413146,32.3356808 Z M49.9413146,26.4671362 L47.0070423,26.4671362 L47.0070423,23.5328638 L49.9413146,23.5328638 L49.9413146,26.4671362 Z M49.9413146,20.5985915 L47.0070423,20.5985915 L47.0070423,17.6643192 L49.9413146,17.6643192 L49.9413146,20.5985915 Z M49.9413146,14.7300469 L47.0070423,14.7300469 L47.0070423,11.7957746 L49.9413146,11.7957746 L49.9413146,14.7300469 Z M49.9413146,8.86150235 L47.0070423,8.86150235 L47.0070423,5.92723005 L49.9413146,5.92723005 L49.9413146,8.86150235 Z" id="Shape"></path>
                    </g>
                    <path d="M43.1372549,14.7058824 L5.88235294,14.7058824 L5.88235294,5.88235294 L43.1372549,5.88235294 L43.1372549,14.7058824 Z M8.79289216,11.7841839 L40.2267157,11.7841839 L40.2267157,8.80405142 L8.79289216,8.80405142 L8.79289216,11.7841839 Z" id="Shape"></path>
                    <path d="M43.1372549,26.4705882 L5.88235294,26.4705882 L5.88235294,17.6470588 L43.1372549,17.6470588 L43.1372549,26.4705882 Z M8.79289216,23.5488898 L40.2267157,23.5488898 L40.2267157,20.5687573 L8.79289216,20.5687573 L8.79289216,23.5488898 Z" id="Shape"></path>
                    <rect id="Rectangle-path" x="5.88235294" y="29.4117647" width="18.627451" height="4"></rect>
                </g>
            </g>
        </g>
    </g>
</svg>