<?xml version="1.0" encoding="UTF-8"?>
<svg width="49px" height="44px" viewBox="0 0 49 44" version="1.1" xmlns="http://www.w3.org/2000/svg" xmlns:xlink="http://www.w3.org/1999/xlink">
    <!-- Generator: Sketch 47 (45396) - http://www.bohemiancoding.com/sketch -->
    <title>processo rapido </title>
    <desc>Created with Sketch.</desc>
    <defs>
        <polygon id="path-1" points="1.90361103e-15 25.8992845 1.90361103e-15 0.51495117 34.4920683 0.51495117 34.4920683 25.8992845"></polygon>
        <polygon id="path-3" points="0.19340974 0.00436691729 41.44275 0.00436691729 41.44275 25.202717 0.19340974 25.202717"></polygon>
    </defs>
    <g id="Page-1" stroke="none" stroke-width="1" fill="none" fill-rule="evenodd">
        <g id="icons" transform="translate(-423.000000, -73.000000)">
            <g id="processo-rapido-" transform="translate(423.000000, 73.000000)">
                <g id="Page-1">
                    <g id="Group-3" transform="translate(0.000000, 17.368421)">
                        <mask id="mask-2" fill="white">
                            <use xlink:href="#path-1"></use>
                        </mask>
                        <g id="Clip-2"></g>
                        <path d="M29.9270851,8.10569094 L29.9270851,8.84545702 L29.906234,8.10569094 C29.0833617,8.09977281 28.3133617,7.77797456 27.7369787,7.19651842 C27.1598511,6.61580205 26.8448511,5.84644532 26.8508085,5.0290038 C26.8627234,3.35565292 28.2418723,1.99448333 29.9471915,1.99448333 C31.6435745,2.00631959 33.0137872,3.38598333 33.0033617,5.06969094 C32.9899574,6.74452135 31.6108085,8.10569094 29.9270851,8.10569094 M29.9278298,0.51495117 C27.6632553,0.51495117 25.776234,2.17202719 25.424,4.32844532 C25.3480426,4.30033421 25.267617,4.27962076 25.1819787,4.27814123 L7.15846809,4.15829912 C5.24017021,4.13462661 3.49314894,4.86699503 2.1452766,6.18969678 C0.796659574,7.51165877 0.0460212766,9.27008275 0.0333617021,11.1409512 L-0.00014893617,16.0566968 C-0.0135531915,17.9712114 0.740808511,19.8339424 2.06559574,21.1677406 C3.31293617,22.4201646 4.94378723,23.1162845 6.66325532,23.1251617 L12.2133617,23.1569716 L10.7068723,24.6320652 C10.4142128,24.9198342 10.411234,25.3873664 10.7001702,25.6780944 C10.8446383,25.8253079 11.0382553,25.8992845 11.230383,25.8992845 C11.4187872,25.8992845 11.6079362,25.828267 11.7531489,25.6854921 L14.539,22.9550155 C14.679,22.817419 14.7601702,22.6302582 14.7616596,22.4334804 C14.7631489,22.2374424 14.6849574,22.048802 14.5471915,21.9089863 L11.7963404,19.1407816 C11.5081489,18.8478342 11.0360213,18.8463547 10.7433617,19.1333839 C10.4507021,19.4204132 10.4484681,19.8886851 10.7359149,20.1794132 L12.2245319,21.6774395 L6.67144681,21.6456295 C5.35112766,21.6382319 4.09261702,21.0989424 3.12602128,20.1283693 C2.07602128,19.0719833 1.47953191,17.5909716 1.48921277,16.0670535 L1.5227234,11.1513079 C1.53314894,9.67621433 2.12517021,8.28767339 3.19155319,7.24238392 C4.25793617,6.19783421 5.69219149,5.64005058 7.14729787,5.63783129 L25.1715532,5.75767339 L25.176766,5.75767339 C25.2609149,5.75767339 25.3398511,5.73622018 25.4143191,5.71032836 C25.7360213,7.88598041 27.6148511,9.56968801 29.8950638,9.5852231 L29.9270851,9.5852231 C32.426234,9.5852231 34.4733617,7.56492193 34.4919787,5.08004766 C34.507617,2.58037807 32.4738936,0.532705556 29.9278298,0.51495117" id="Fill-1" fill="#4A6174" mask="url(#mask-2)"></path>
                    </g>
                    <g id="Group-6" transform="translate(24.500000, 33.578947)" fill="#4A6174">
                        <path d="M5.16826154,8.81789393 L5.16826154,9.61951336 L5.14726154,8.81789393 C3.30814615,8.80506802 1.82199231,7.31004777 1.8333,5.48476032 C1.84622308,3.67149717 3.34126154,2.19491417 5.19087692,2.19491417 C7.03160769,2.20774008 8.51776154,3.70276032 8.50645385,5.52804777 C8.49272308,7.34291417 6.99606923,8.81789393 5.16826154,8.81789393 M5.16987692,0.591675304 C2.45764615,0.591675304 0.2373,2.7816996 0.217915385,5.47433927 C0.200953846,8.18381296 2.40595385,10.4018939 5.13514615,10.4211328 L5.16826154,10.4211328 C7.88049231,10.4211328 10.1016462,8.2311085 10.1218385,5.53927045 C10.1396077,2.83059838 7.93299231,0.61091417 5.16987692,0.591675304" id="Fill-4"></path>
                    </g>
                    <g id="Group-9" transform="translate(7.000000, 0.000000)">
                        <mask id="mask-4" fill="white">
                            <use xlink:href="#path-3"></use>
                        </mask>
                        <g id="Clip-8"></g>
                        <path d="M4.79325,7.47230496 L4.79325,8.20012451 L4.77225,7.47230496 C3.06375,7.46065985 1.68375,6.10400421 1.69425,4.44748692 C1.707,2.79970346 3.09525,1.45978767 4.812,1.45978767 C6.5205,1.47143278 7.90125,2.82954406 7.89,4.48678917 C7.87875,6.13311699 6.48975,7.47230496 4.79325,7.47230496 M34.365,3.96785383 L9.32775,3.76770346 C8.9805,1.65120421 7.09725,0.0201606015 4.791,0.00414857143 C2.27475,0.00414857143 0.21225,1.99255158 0.1935,4.43656962 C0.17775,6.89732752 2.22525,8.91193203 4.76025,8.92794406 L4.7925,8.92794406 C7.05525,8.92794406 8.94375,7.32164632 9.318,5.22334256 L34.35225,5.42349293 C37.45725,5.44751098 39.9645,7.91773053 39.9435,10.9294478 L39.91125,15.6253395 C39.9015,17.115914 39.44625,18.5104162 38.63025,19.5533817 C37.869,20.5272042 36.88725,21.0606959 35.865,21.0606959 L35.8455,21.0606959 L31.95,21.0374057 L33.468,19.5839501 C33.7635,19.3008283 33.76575,18.8401185 33.4755,18.5548132 C33.1845,18.2673245 32.70975,18.2651411 32.415,18.547535 L29.6085,21.2324614 C29.4675,21.3692914 29.3865,21.5534298 29.385,21.7455741 C29.3835,21.9391741 29.46225,22.1254959 29.601,22.2615982 L32.37075,24.9850989 C32.51625,25.1306629 32.71125,25.202717 32.904,25.202717 C33.0945,25.202717 33.285,25.1335741 33.43125,24.9923771 C33.726,24.710711 33.72825,24.2500012 33.438,23.9632403 L31.941,22.4930448 L35.83575,22.516335 L35.86575,22.516335 C37.36725,22.516335 38.77275,21.7768704 39.82425,20.4333155 C40.836,19.1421636 41.39925,17.438338 41.4105,15.6362568 L41.44275,10.9403651 C41.4705,7.12586286 38.295,3.99842226 34.365,3.96785383" id="Fill-7" fill="#4A6174" mask="url(#mask-4)"></path>
                    </g>
                    <path d="M16.5807631,40.112353 L15.3482493,41.5806902 C15.1080859,41.8671411 15.1062572,42.3332682 15.3421538,42.6219283 C15.4610164,42.7684675 15.6188903,42.8421053 15.7761547,42.8421053 C15.9309809,42.8421053 16.085807,42.771413 16.2040601,42.6292921 L18.4850031,39.9120583 C18.5995989,39.7743556 18.6654305,39.5880521 18.6666496,39.3921756 C18.6678687,39.1970355 18.6038657,39.0092592 18.4910986,38.8700838 L16.2394141,36.1145583 C16.0035175,35.8236891 15.6170617,35.8214799 15.3775078,36.1079309 C15.1379539,36.3929091 15.1361252,36.8590362 15.3720218,37.149169 L16.5899064,38.6395975 L16.5807631,40.112353 Z" id="Fill-10" fill="#4A6174"></path>
                    <path d="M20.0807631,40.112353 L18.8482493,41.5806902 C18.6080859,41.8671411 18.6062572,42.3332682 18.8421538,42.6219283 C18.9610164,42.7684675 19.1188903,42.8421053 19.2761547,42.8421053 C19.4309809,42.8421053 19.585807,42.771413 19.7040601,42.6292921 L21.9850031,39.9120583 C22.0995989,39.7743556 22.1654305,39.5880521 22.1666496,39.3921756 C22.1678687,39.1970355 22.1038657,39.0092592 21.9910986,38.8700838 L19.7394141,36.1145583 C19.5035175,35.8236891 19.1170617,35.8214799 18.8775078,36.1079309 C18.6379539,36.3929091 18.6361252,36.8590362 18.8720218,37.149169 L20.0899064,38.6395975 L20.0807631,40.112353 Z" id="Fill-12" fill="#4A6174"></path>
                </g>
            </g>
        </g>
    </g>
</svg>