<?xml version="1.0" encoding="UTF-8"?>
<svg width="44px" height="44px" viewBox="0 0 44 44" version="1.1" xmlns="http://www.w3.org/2000/svg" xmlns:xlink="http://www.w3.org/1999/xlink">
    <!-- Generator: Sketch 47 (45396) - http://www.bohemiancoding.com/sketch -->
    <title>receba ofertas</title>
    <desc>Created with Sketch.</desc>
    <defs>
        <polygon id="path-1" points="0 44 44 44 44 0 0 0"></polygon>
    </defs>
    <g id="Page-1" stroke="none" stroke-width="1" fill="none" fill-rule="evenodd">
        <g id="icons" transform="translate(-336.000000, -70.000000)">
            <g id="receba-ofertas" transform="translate(336.000000, 70.000000)">
                <g id="Page-1">
                    <path d="M31.4996754,9.75 C31.8567718,9.75 32.161927,9.54662338 32.2807428,9.26318182 L29.2441241,6.53045455 C29.087651,6.39019481 29,6.19909091 29,5.99980519 C29,5.02383117 29.6992598,4.19863636 30.6666667,3.88831169 L30.6666667,3 L32.3326841,3 L32.3326841,3.88831169 C33.3000909,4.19863636 34,5.02383117 34,5.99980519 L32.3326841,5.99980519 C32.3326841,5.58662338 31.9587067,5.25 31.4996754,5.25 C31.1432282,5.25 30.838073,5.45337662 30.7192572,5.73681818 L33.7558759,8.47012987 C33.912349,8.61038961 34,8.80149351 34,9.00019481 C34,9.97675325 33.3000909,10.8013636 32.3326841,11.1122727 L32.3326841,12 L30.6666667,12 L30.6666667,11.1122727 C29.6992598,10.8013636 29,9.97675325 29,9.00019481 L30.6666667,9.00019481 C30.6666667,9.41337662 31.0406441,9.75 31.4996754,9.75 Z" id="Fill-1" fill="#4A6174"></path>
                    <mask id="mask-2" fill="white">
                        <use xlink:href="#path-1"></use>
                    </mask>
                    <g id="Clip-4"></g>
                    <polygon id="Fill-3" fill="#4A6174" mask="url(#mask-2)" points="21 17 39 17 39 15 21 15"></polygon>
                    <polygon id="Fill-5" fill="#4A6174" mask="url(#mask-2)" points="24 21 37 21 37 19 24 19"></polygon>
                    <polygon id="Fill-6" fill="#4A6174" mask="url(#mask-2)" points="26 25 37 25 37 23 26 23"></polygon>
                    <polygon id="Fill-7" fill="#4A6174" mask="url(#mask-2)" points="21 30 36 30 36 28 21 28"></polygon>
                    <path d="M38.3031367,33 L27.3617542,33 L19.4040264,33 L19.4040264,28.2977143 L23.6565658,25.9028571 C24.3279304,25.524 24.8070738,24.9017143 25.0060593,24.1502857 C25.2050448,23.3977143 25.096251,22.6154286 24.7010986,21.9474286 C24.20899,21.1154286 23.3544235,20.6297143 22.4598344,20.5725714 C21.92263,20.5394286 21.3713332,20.6594286 20.8758424,20.952 L17.9716692,22.6697143 L20.7602843,1.46685714 L42.4491371,1.46685714 L38.3031367,33 Z M20.850476,38.6188571 L15.0629864,33.404 L15.0629864,26.0874286 L21.6052679,22.2194286 C21.7659219,22.1245714 21.9378499,22.0668571 22.1120326,22.044 C22.6351446,21.9754286 23.1751675,22.2177143 23.4615262,22.7017143 C23.6058329,22.9445714 23.6706582,23.2188571 23.654311,23.4954286 C23.6481103,23.5868571 23.6340178,23.6794286 23.6092151,23.7702857 C23.5128227,24.1354286 23.2800154,24.4371429 22.9541978,24.6205714 L18.3296176,27.2257143 C18.0996287,27.3548571 17.957013,27.6005714 17.957013,27.8668571 L17.957013,33.7331429 C17.957013,34.1382857 18.2811395,34.4668571 18.6802379,34.4668571 L25.458709,34.4668571 L20.850476,38.6188571 Z M17.2039122,42.2588571 L11.7766257,37.3685714 L14.3690739,34.7411429 L19.796924,39.6314286 L17.2039122,42.2588571 Z M43.8206149,0.249714286 C43.6830725,0.092 43.4846507,0 43.2760824,0 L20.1272512,0 C19.7647932,0 19.4581414,0.272 19.4102271,0.636571429 L16.3888046,23.6062857 L13.9756125,25.0331429 C13.7529517,25.1645714 13.6165367,25.4062857 13.6165367,25.6668571 L13.6165367,33.4297143 L10.2112358,36.8811429 C10.0703112,37.0245714 9.99364825,37.2194286 10.0004126,37.4211429 C10.0060496,37.6228571 10.0934228,37.8137143 10.2428029,37.948 L16.7535173,43.8142857 C16.8899323,43.9394286 17.0618603,44 17.2337882,44 C17.4186812,44 17.6047017,43.928 17.7450625,43.7851429 L21.3442757,40.1365714 L27.6368389,34.4668571 L38.9361698,34.4668571 C39.2986277,34.4668571 39.6052796,34.1942857 39.6531939,33.8302857 L43.9936702,0.830285714 C44.0212915,0.620571429 43.9575936,0.409142857 43.8206149,0.249714286 L43.8206149,0.249714286 Z" id="Fill-8" fill="#4A6174" mask="url(#mask-2)"></path>
                    <polygon id="Fill-9" fill="#4A6174" mask="url(#mask-2)" points="7 5 17 5 17 3 7 3"></polygon>
                    <polygon id="Fill-10" fill="#4A6174" mask="url(#mask-2)" points="5 15 15 15 15 13 5 13"></polygon>
                    <polygon id="Fill-11" fill="#4A6174" mask="url(#mask-2)" points="3 23 13 23 13 21 3 21"></polygon>
                    <polygon id="Fill-12" fill="#4A6174" mask="url(#mask-2)" points="3 5 5 5 5 3 3 3"></polygon>
                    <polygon id="Fill-13" fill="#4A6174" mask="url(#mask-2)" points="2 15 4 15 4 13 2 13"></polygon>
                    <polygon id="Fill-14" fill="#4A6174" mask="url(#mask-2)" points="0 23 2 23 2 21 0 21"></polygon>
                </g>
            </g>
        </g>
    </g>
</svg>