<?xml version="1.0" encoding="UTF-8"?>
<svg width="68px" height="52px" viewBox="0 0 68 52" version="1.1" xmlns="http://www.w3.org/2000/svg" xmlns:xlink="http://www.w3.org/1999/xlink">
    <!-- Generator: Sketch 47 (45396) - http://www.bohemiancoding.com/sketch -->
    <title>Page 1</title>
    <desc>Created with Sketch.</desc>
    <defs>
        <polygon id="path-1" points="0 52 68 52 68 0 0 0"></polygon>
    </defs>
    <g id="Page-1" stroke="none" stroke-width="1" fill="none" fill-rule="evenodd">
        <g id="icons" transform="translate(-580.000000, -64.000000)">
            <g id="Page-1" transform="translate(580.000000, 64.000000)">
                <path d="M18.2885261,23.2919155 L18.2918199,22.417262 C18.2951137,21.5014639 17.7746925,20.6633095 16.9505825,20.257173 L13.9677127,18.772651 C13.5540108,18.5689191 13.2931414,18.1488465 13.2951177,17.6896202 L13.2951177,16.626498 C13.2957765,16.5448725 13.3247619,16.4665652 13.3774628,16.4035211 C13.4479502,16.3185775 13.5197552,16.223016 13.5941952,16.1201546 C13.9670539,15.5919116 14.2621788,15.013897 14.4696886,14.4020377 C14.5019678,14.3091307 14.5711377,14.2341414 14.6620468,14.1936605 C14.9723232,14.0602725 15.1732453,13.7550064 15.171269,13.4178866 L15.171269,12.1749229 C15.1706103,11.9652184 15.0915589,11.7634774 14.9505841,11.6081899 C14.8906368,11.5431549 14.8576988,11.458875 14.8576988,11.3706133 L14.8576988,10.4468517 C14.85704,10.4335793 14.85704,10.4203068 14.8576988,10.407698 C14.9090821,9.77858453 14.70816,9.15411641 14.2984107,8.67232697 C13.7331938,8.03458641 12.7931418,7.7087481 11.4980177,7.7087481 C10.2028936,7.7087481 9.26350038,8.03458641 8.70091849,8.67564508 C8.29380419,9.15478003 8.09288209,9.7746028 8.14228916,10.4003982 C8.14294792,10.4149979 8.14294792,10.4289339 8.14228916,10.44287 L8.14228916,11.374595 C8.14228916,11.4621931 8.10935111,11.5471367 8.04940386,11.611508 C7.90777025,11.7667955 7.82937769,11.9692001 7.82871893,12.178241 L7.82871893,13.4251864 C7.82806016,13.6859898 7.94927219,13.9335207 8.15612314,14.0947808 C8.21804668,14.1425616 8.2615249,14.2095874 8.28128773,14.2859039 C8.48484488,15.054378 8.83596449,15.7757349 9.31686002,16.4108209 C9.36494958,16.4725378 9.39064125,16.5481907 9.39130002,16.626498 L9.39130002,17.6610844 C9.39195878,18.1043838 9.14887597,18.5118476 8.75757193,18.7228793 L5.97167167,20.2359371 C5.18972236,20.6593278 4.70553303,21.4755826 4.70816807,22.3608541 L4.70816807,23.2919155 L18.2885261,23.2919155 Z M17.2667878,19.6300504 C18.3313455,20.1556388 19.0032818,21.238006 18.9999879,22.4212437 L18.9999879,23.6462896 C18.9999879,23.842058 18.8405678,24 18.644257,24 L4.35573094,24 C4.15942016,24 4,23.842058 4,23.6462896 L4,22.357536 C4,21.2141156 4.62779923,20.1622751 5.63702108,19.6161143 L8.42292135,18.1037202 C8.58563531,18.0167857 8.68642575,17.8475622 8.68642575,17.6644025 L8.68642575,16.7439591 C8.20223641,16.0869735 7.84123538,15.349026 7.61923293,14.5659523 C7.29775756,14.2706406 7.11593952,13.855877 7.11725705,13.4212047 L7.11725705,12.178241 C7.11791581,11.8437756 7.22792889,11.5179373 7.43082728,11.2498341 L7.43082728,10.4607878 C7.36495118,9.64320568 7.62845558,8.83225983 8.16336951,8.20845532 C8.86824378,7.40746379 9.98879624,7 11.4980177,7 C13.0065804,7 14.1284504,7.40746379 14.8326659,8.20845532 C15.3656035,8.83690518 15.6284492,9.64785104 15.5658669,10.4680876 L15.5658669,11.2498341 C15.7628364,11.5199282 15.8675794,11.8451029 15.8642856,12.178241 L15.8642856,13.4145685 C15.8636268,13.9720108 15.5638906,14.4863177 15.0783837,14.7637116 C14.8524287,15.3928251 14.5421523,15.9880938 14.1567771,16.5342546 L13.9894518,16.7572315 L13.9894518,17.6962564 C13.9914281,17.8906976 14.1060525,18.0658937 14.2845767,18.146192 L17.2667878,19.6300504 Z" id="Fill-1" fill="#4A6174"></path>
                <mask id="mask-2" fill="white">
                    <use xlink:href="#path-1"></use>
                </mask>
                <g id="Clip-4"></g>
                <path d="M0.966,30.0463234 L41.0346563,30.0463234 L41.0346563,0.954324912 L0.966,0.954324912 L0.966,30.0463234 Z M0,31 L42,31 L42,0 L0,0 L0,31 Z" id="Fill-3" fill="#4A6174" mask="url(#mask-2)"></path>
                <polygon id="Fill-5" fill="#4A6174" mask="url(#mask-2)" points="24 24 38 24 38 19 24 19"></polygon>
                <polygon id="Fill-6" fill="#4A6174" mask="url(#mask-2)" points="24 8 38 8 38 7 24 7"></polygon>
                <polygon id="Fill-7" fill="#4A6174" mask="url(#mask-2)" points="24 10 36 10 36 9 24 9"></polygon>
                <path d="M13.4775788,48.4999726 L3.51970095,48.4999726 L3.51970095,47.8424925 C3.51766291,47.2172934 3.87296173,46.6415043 4.4456518,46.3424101 L6.48912954,45.274499 C6.77581425,45.1256108 6.95380334,44.8370574 6.95312399,44.5247873 L6.95312399,43.7948394 C6.95312399,43.7395004 6.93410226,43.685479 6.89877618,43.6426572 C6.54687409,43.1940159 6.28872199,42.6847653 6.1392655,42.1425748 C6.12567855,42.0892122 6.09306986,42.04112 6.04755357,42.0075213 C5.89605904,41.8942081 5.80774385,41.7196267 5.80774385,41.5351633 L5.80774385,40.6550096 C5.8084232,40.5067801 5.86616775,40.363821 5.96942859,40.2544606 C6.01358619,40.2090036 6.03736336,40.149053 6.0380427,40.087126 L6.0380427,39.4296459 C6.03872205,39.4197639 6.03872205,39.409882 6.0380427,39.4 C6.00203728,38.9586055 6.14877637,38.5211639 6.44700999,38.1825419 C6.86005336,37.729289 7.54823253,37.5000274 8.4986399,37.5000274 C9.44836792,37.5000274 10.1372264,37.729289 10.5523079,38.1799067 C10.8525795,38.5205051 10.999998,38.9612407 10.9619545,39.4046116 C10.9612751,39.4138348 10.9612751,39.4237167 10.9619545,39.4322811 L10.9619545,40.0851496 C10.9619545,40.1464178 10.986411,40.2063684 11.0292099,40.2518254 C11.1338294,40.3618446 11.191574,40.5041449 11.191574,40.6523744 L11.191574,41.5298929 C11.193612,41.7670601 11.0461936,41.982487 10.8186121,42.0773538 C10.7520361,42.1056821 10.701085,42.1590447 10.6773078,42.2249245 C10.5251339,42.656437 10.3091014,43.0648916 10.0360036,43.4371123 C9.98097648,43.5102388 9.92798736,43.5774362 9.87635694,43.6373868 C9.83831347,43.682185 9.81657435,43.737524 9.815895,43.7948394 L9.815895,44.5445512 C9.8145363,44.8686797 10.0067917,45.1657974 10.3097807,45.3094153 L12.4966008,46.3575624 C13.1005409,46.6447982 13.4830136,47.2357398 13.4802962,47.8826791 L13.4775788,48.4999726 Z M12.7282584,45.9148504 L10.5421176,44.8673621 C10.4110035,44.8107055 10.3267644,44.6868515 10.3247264,44.5498216 L10.3247264,43.8870711 L10.4476883,43.7302772 C10.7309763,43.3442218 10.9585578,42.9239089 11.1236392,42.4798792 C11.4802967,42.2835575 11.699726,41.9212188 11.7004054,41.5272578 L11.7004054,40.6550096 C11.7031228,40.41916 11.6256771,40.1898984 11.4816554,40.0001647 L11.4816554,39.4474334 C11.5271717,38.8690091 11.334237,38.2965139 10.9442915,37.8524842 C10.4273079,37.2872358 9.60529723,37 8.4986399,37 C7.39198257,37 6.56997191,37.2872358 6.05298835,37.8524842 C5.66100476,38.2932199 5.46739067,38.8650563 5.51562436,39.4421631 L5.51562436,40.0001647 C5.36752657,40.1885808 5.2866842,40.4185012 5.28600485,40.6550096 L5.28600485,41.5325281 C5.2853255,41.8395279 5.41915699,42.132034 5.65353193,42.3395553 C5.81725472,42.8929454 6.0822003,43.4133956 6.43681977,43.8771891 L6.43681977,44.5274225 C6.43681977,44.6565468 6.36277088,44.7757892 6.24388504,44.8370574 L4.2004073,45.9049684 C3.46059771,46.2903651 3,47.0328301 3,47.8398573 L3,48.7496569 C3,48.8880044 3.1168478,49 3.2608695,49 L13.7384483,49 C13.8831494,49 13.9999972,48.8880044 13.9999972,48.7496569 L13.9999972,47.8846555 C14.0013559,47.0499588 13.5095082,46.2864123 12.7282584,45.9148504 L12.7282584,45.9148504 Z" id="Fill-8" fill="#4A6174" mask="url(#mask-2)"></path>
                <path d="M0.966,51.446 L41.0346563,51.446 L41.0346563,34.554 L0.966,34.554 L0.966,51.446 Z M0,52 L42,52 L42,34 L0,34 L0,52 Z" id="Fill-9" fill="#4A6174" mask="url(#mask-2)"></path>
                <polygon id="Fill-10" fill="#4A6174" mask="url(#mask-2)" points="28 48 38 48 38 45 28 45"></polygon>
                <polygon id="Fill-11" fill="#4A6174" mask="url(#mask-2)" points="27 38 37 38 37 37 27 37"></polygon>
                <polygon id="Fill-12" fill="#4A6174" mask="url(#mask-2)" points="27 39 36 39 36 38 27 38"></polygon>
                <path d="M49.239459,3.27133174 L48.5754442,3.77651515 C48.506497,3.83512759 48.4348979,3.86373604 48.3617078,3.86373604 C48.2577566,3.86373604 48.1718377,3.81698565 48.1028905,3.72278708 C48.0344736,3.62998405 48,3.51834131 48,3.38785885 C48,3.20015949 48.0636436,3.05781499 48.1914612,2.96152313 L49.35773,2.07745215 C49.4272076,2.02581738 49.497746,2 49.5719968,2 C49.6897375,2 49.7905065,2.0551236 49.8743039,2.16467305 C49.9575709,2.27492026 50,2.40819378 50,2.56309809 L50,8.49481659 C50,8.63785885 49.9628746,8.75717703 49.8891541,8.85486443 C49.8154336,8.95185407 49.7268629,9 49.6234421,9 C49.5152479,9 49.4245558,8.95185407 49.350305,8.85486443 C49.2765845,8.75717703 49.239459,8.63785885 49.239459,8.49481659 L49.239459,3.27133174 Z" id="Fill-13" fill="#4A6174" mask="url(#mask-2)"></path>
                <path d="M56,6.19387446 C56,6.44132215 55.9451484,6.67482058 55.8354452,6.89376327 C55.7257421,7.11391893 55.5778511,7.30496311 55.3910779,7.46871525 C55.2043048,7.63125442 54.9848985,7.76043667 54.7342475,7.856262 C54.482208,7.95148085 54.2155876,8 53.9323034,8 C53.616386,8 53.3240757,7.97331446 53.0532894,7.91994339 C52.782503,7.86596583 52.5249089,7.78590923 52.2805069,7.6785606 C52.0930394,7.59971697 52,7.47659962 52,7.30799555 C52,7.19518852 52.047214,7.09815021 52.1395591,7.01627413 C52.2332928,6.93561104 52.3506336,6.89376327 52.49297,6.89376327 C52.5707342,6.89376327 52.6478042,6.91377742 52.7248742,6.95380572 C53.0727304,7.11634489 53.474744,7.19761447 53.9323034,7.19761447 C54.0801944,7.19761447 54.2190592,7.16971596 54.3482034,7.11391893 C54.4766534,7.05751541 54.5898282,6.98291721 54.6856449,6.89012433 C54.7828502,6.79733145 54.8578372,6.69058931 54.9133831,6.56929142 C54.9675404,6.44860002 54.9953133,6.3236632 54.9953133,6.19448095 L54.9953133,5.91549581 C54.9953133,5.78631356 54.9675404,5.66137673 54.9133831,5.54007884 C54.8578372,5.41938745 54.7828502,5.31203882 54.6856449,5.21985242 C54.5898282,5.12645305 54.4766534,5.05185485 54.3482034,4.99605782 C54.2190592,4.94026079 54.0801944,4.91175579 53.9323034,4.91175579 C53.5719493,4.91175579 53.2338136,4.98514101 52.9178962,5.13130496 C52.8276341,5.17072678 52.7408436,5.19013444 52.6575247,5.19013444 C52.5026905,5.19013444 52.3700746,5.14282826 52.2610658,5.04639644 C52.1513626,4.9511776 52.096511,4.83594461 52.096511,4.70069746 L52.096511,2.54038209 C52.096511,2.39361164 52.1576115,2.26746184 52.2805069,2.1607197 C52.4020135,2.05337107 52.5471272,2 52.7151536,2 L55.3327547,2 C55.461899,2 55.5729908,2.04063479 55.6667245,2.12251087 C55.7590696,2.20438694 55.8062836,2.30081876 55.8062836,2.4136258 C55.8062836,2.52582634 55.7611526,2.62286465 55.6708905,2.70474073 C55.5806284,2.78601031 55.4681479,2.8266451 55.3327547,2.8266451 L53.0914772,2.8266451 L53.0914772,4.210654 C53.3615692,4.14333367 53.642076,4.10937026 53.9316091,4.10937026 C54.2155876,4.10937026 54.482208,4.15788942 54.7335532,4.25310826 C54.9848985,4.34893359 55.2043048,4.47811584 55.3910779,4.64065501 C55.5778511,4.80501365 55.7250477,4.99545133 55.8354452,5.21560699 C55.9444541,5.43454968 55.9993057,5.66804811 55.9993057,5.91549581 L55.9993057,6.19387446 L56,6.19387446 Z" id="Fill-14" fill="#4A6174" mask="url(#mask-2)"></path>
                <path d="M58.2166227,21 C52.6789227,21 48,16.3040705 48,10.7446937 C48,10.4746632 48.2166227,10.2553853 48.4833837,10.2553853 C48.7507874,10.2553853 48.9674102,10.4746632 48.9674102,10.7446937 C48.9674102,15.7737694 53.2028026,20.0213831 58.2166227,20.0213831 C63.1597352,20.0213831 67.0332326,16.0093142 67.0332326,10.8878425 C67.0332326,6.45283408 64.1001478,2.86825936 59.7349103,1.96967564 C59.4732918,1.91566953 59.3048788,1.65670043 59.3575882,1.39252593 C59.4109404,1.12770075 59.6654882,0.955922257 59.9277496,1.00992837 C64.7558012,2.00481216 68,5.97393646 68,10.8878425 C68,16.5578342 63.702899,21 58.2166227,21" id="Fill-15" fill="#4A6174" mask="url(#mask-2)"></path>
                <path d="M57.4822976,11 C57.3590758,11 57.2358541,10.9531488 57.1415125,10.8581629 C56.9528292,10.6694745 56.9528292,10.3646209 57.1415125,10.1759326 L62.1756338,5.1410349 C62.364317,4.95298837 62.6698043,4.95298837 62.8584875,5.1410349 C63.0471708,5.32972323 63.0471708,5.63586041 62.8584875,5.82390694 L57.8237245,10.8581629 C57.7293828,10.9531488 57.6061611,11 57.4822976,11" id="Fill-16" fill="#4A6174" mask="url(#mask-2)"></path>
                <path d="M58.0004254,0 C58.5525308,0 59,0.44661846 59,0.999574649 C59,1.55168014 58.5525308,2 58.0004254,2 C57.4483199,2 57,1.55168014 57,0.999574649 C57,0.44661846 57.4483199,0 58.0004254,0" id="Fill-17" fill="#4A6174" mask="url(#mask-2)"></path>
            </g>
        </g>
    </g>
</svg>